<?xml version="1.0" encoding="UTF-8" standalone="no"?><!DOCTYPE svg PUBLIC "-//W3C//DTD SVG 1.1//EN" "http://www.w3.org/Graphics/SVG/1.1/DTD/svg11.dtd"><svg width="100%" height="100%" viewBox="0 0 1850 343" version="1.1" xmlns="http://www.w3.org/2000/svg" xmlns:xlink="http://www.w3.org/1999/xlink" xml:space="preserve" xmlns:serif="http://www.serif.com/" style="fill-rule:evenodd;clip-rule:evenodd;stroke-linejoin:round;stroke-miterlimit:2;"><g transform="matrix(3.278082,0,0,3.386165,-5116.907745,-4208.389319)"><g transform="matrix(136.64185,0,0,136.64185,1552.582886,1342.638868)"><path d="M0.326,0.01c-0.025,0 -0.048,-0.005 -0.071,-0.015c-0.023,-0.01 -0.043,-0.026 -0.061,-0.049c-0.017,-0.023 -0.03,-0.054 -0.039,-0.093l0.03,0.014l0,0.132l-0.124,-0l0,-0.697l0.124,0l0,0.337l-0.026,0.008c0.006,-0.034 0.017,-0.062 0.034,-0.084c0.016,-0.022 0.036,-0.039 0.059,-0.05c0.023,-0.011 0.048,-0.017 0.074,-0.017c0.039,0 0.074,0.01 0.106,0.03c0.032,0.02 0.057,0.049 0.076,0.087c0.019,0.038 0.028,0.084 0.028,0.138c0,0.049 -0.008,0.093 -0.025,0.132c-0.017,0.039 -0.041,0.069 -0.073,0.092c-0.031,0.022 -0.069,0.034 -0.112,0.034Zm-0.034,-0.114c0.024,0 0.045,-0.006 0.063,-0.017c0.018,-0.012 0.032,-0.028 0.041,-0.05c0.01,-0.021 0.015,-0.047 0.015,-0.076c0,-0.029 -0.005,-0.054 -0.015,-0.076c-0.01,-0.021 -0.024,-0.038 -0.041,-0.049c-0.018,-0.012 -0.039,-0.017 -0.063,-0.017c-0.024,-0 -0.045,0.006 -0.063,0.018c-0.018,0.012 -0.032,0.028 -0.041,0.05c-0.01,0.021 -0.015,0.046 -0.015,0.075c0,0.029 0.005,0.054 0.015,0.075c0.01,0.021 0.023,0.038 0.041,0.05c0.018,0.012 0.039,0.018 0.063,0.018Z" style="fill:#3d3d3d;fill-rule:nonzero;"/></g><g transform="matrix(136.64185,0,0,136.64185,1624.183216,1342.638868)"><path d="M0.377,-0l-0.01,-0.074l0,-0.237c0,-0.029 -0.009,-0.051 -0.028,-0.065c-0.018,-0.014 -0.043,-0.021 -0.075,-0.021c-0.026,0 -0.053,0.005 -0.08,0.015c-0.027,0.01 -0.051,0.025 -0.072,0.044l-0.063,-0.084c0.035,-0.028 0.07,-0.049 0.106,-0.061c0.036,-0.012 0.076,-0.018 0.118,-0.018c0.068,0 0.121,0.017 0.159,0.051c0.038,0.034 0.057,0.081 0.057,0.14l0,0.311l-0.114,-0Zm-0.149,0.01c-0.036,0 -0.068,-0.007 -0.097,-0.02c-0.028,-0.013 -0.051,-0.032 -0.067,-0.057c-0.016,-0.025 -0.024,-0.053 -0.024,-0.085c0,-0.028 0.006,-0.052 0.018,-0.073c0.012,-0.02 0.027,-0.036 0.047,-0.047c0.016,-0.01 0.034,-0.017 0.055,-0.021c0.021,-0.004 0.042,-0.006 0.065,-0.006l0.153,0l0,0.092l-0.135,0c-0.011,0 -0.021,0.001 -0.031,0.003c-0.01,0.002 -0.019,0.006 -0.027,0.011c-0.006,0.005 -0.011,0.01 -0.015,0.017c-0.004,0.007 -0.005,0.015 -0.005,0.024c0,0.019 0.007,0.034 0.022,0.045c0.015,0.011 0.034,0.017 0.059,0.017c0.022,0 0.042,-0.005 0.061,-0.014c0.018,-0.01 0.033,-0.023 0.044,-0.04c0.011,-0.017 0.017,-0.036 0.017,-0.058l0.033,0.065c-0.009,0.035 -0.023,0.063 -0.04,0.084c-0.018,0.022 -0.038,0.038 -0.06,0.048c-0.023,0.01 -0.047,0.015 -0.072,0.015Z" style="fill:#3d3d3d;fill-rule:nonzero;"/></g><g transform="matrix(136.64185,0,0,136.64185,1691.957573,1342.638868)"><path d="M0.248,0.01c-0.043,0 -0.081,-0.011 -0.112,-0.034c-0.031,-0.022 -0.056,-0.053 -0.073,-0.092c-0.017,-0.039 -0.025,-0.083 -0.025,-0.132c0,-0.054 0.009,-0.1 0.028,-0.138c0.019,-0.038 0.044,-0.067 0.076,-0.087c0.032,-0.02 0.067,-0.03 0.106,-0.03c0.027,0 0.051,0.005 0.074,0.016c0.023,0.011 0.043,0.027 0.059,0.049c0.016,0.022 0.028,0.05 0.033,0.084l-0.026,-0.007l0,-0.337l0.124,0l0,0.697l-0.124,-0l0,-0.132l0.03,-0.014c-0.008,0.039 -0.021,0.07 -0.039,0.093c-0.018,0.023 -0.038,0.039 -0.061,0.049c-0.023,0.01 -0.047,0.015 -0.071,0.015Zm0.034,-0.114c0.024,0 0.045,-0.006 0.063,-0.018c0.018,-0.012 0.031,-0.028 0.041,-0.05c0.01,-0.021 0.015,-0.047 0.015,-0.075c0,-0.029 -0.005,-0.054 -0.015,-0.075c-0.01,-0.021 -0.023,-0.038 -0.041,-0.05c-0.018,-0.012 -0.039,-0.018 -0.063,-0.018c-0.024,-0 -0.045,0.006 -0.063,0.017c-0.018,0.012 -0.032,0.028 -0.042,0.049c-0.01,0.021 -0.015,0.046 -0.015,0.076c0,0.029 0.005,0.054 0.015,0.076c0.01,0.021 0.024,0.038 0.042,0.05c0.018,0.012 0.039,0.017 0.063,0.017Z" style="fill:#3d3d3d;fill-rule:nonzero;"/></g><g transform="matrix(136.64185,0,0,136.64185,1763.557903,1342.638868)"><path d="M0.235,0.01c-0.04,0 -0.074,-0.008 -0.1,-0.024c-0.027,-0.016 -0.047,-0.039 -0.06,-0.068c-0.013,-0.029 -0.02,-0.064 -0.02,-0.103l0,-0.308l0.124,0l0,0.277c0,0.023 0.003,0.043 0.008,0.06c0.005,0.018 0.015,0.032 0.028,0.042c0.013,0.01 0.032,0.015 0.057,0.015c0.029,0 0.052,-0.008 0.067,-0.025c0.015,-0.016 0.025,-0.04 0.031,-0.069c0.006,-0.03 0.008,-0.065 0.008,-0.105l0,-0.196l0.124,0l0,0.493l-0.124,-0l0,-0.107l0.017,0.01c-0.015,0.038 -0.037,0.065 -0.066,0.082c-0.028,0.017 -0.06,0.025 -0.095,0.025Z" style="fill:#3d3d3d;fill-rule:nonzero;"/></g><g transform="matrix(136.64185,0,0,136.64185,1833.791814,1342.638868)"><path d="M0.169,-0.617l-0.156,0.571c-0.004,0.014 -0.005,0.025 -0.005,0.033c0.001,0.008 0.004,0.014 0.011,0.018c0.007,0.004 0.018,0.005 0.033,0.005c0.025,0 0.046,-0.002 0.064,-0.005c0.017,-0.003 0.031,-0.008 0.04,-0.015c0.009,-0.006 0.014,-0.014 0.014,-0.022c0,-0.006 -0.001,-0.011 -0.004,-0.015c-0.003,-0.004 -0.004,-0.01 -0.004,-0.017c0,-0.008 0.001,-0.017 0.002,-0.027c0.001,-0.01 0.003,-0.023 0.007,-0.039c0.003,-0.016 0.008,-0.036 0.015,-0.061c0.009,-0.034 0.021,-0.065 0.035,-0.092c0.014,-0.027 0.03,-0.05 0.047,-0.07c0.017,-0.019 0.034,-0.034 0.051,-0.044c0.017,-0.01 0.032,-0.015 0.046,-0.014c0.012,0 0.02,0.006 0.026,0.016c0.006,0.01 0.008,0.024 0.005,0.041c-0.004,0.029 -0.015,0.055 -0.033,0.078c-0.017,0.023 -0.042,0.042 -0.073,0.058c-0.031,0.016 -0.071,0.028 -0.118,0.035l0.001,0.009c0.082,-0.013 0.148,-0.029 0.198,-0.047c0.05,-0.018 0.087,-0.038 0.111,-0.06c0.024,-0.022 0.038,-0.047 0.042,-0.075c0.004,-0.031 -0.002,-0.055 -0.019,-0.072c-0.017,-0.016 -0.04,-0.025 -0.069,-0.025c-0.024,-0 -0.047,0.004 -0.07,0.013c-0.023,0.009 -0.045,0.022 -0.066,0.039c-0.021,0.017 -0.04,0.037 -0.057,0.061c-0.017,0.023 -0.031,0.049 -0.041,0.077l0.007,-0.008l0.1,-0.356c0.005,-0.018 0.008,-0.034 0.007,-0.047c-0,-0.013 -0.003,-0.024 -0.008,-0.032c-0.005,-0.008 -0.012,-0.015 -0.021,-0.018c-0.009,-0.004 -0.02,-0.006 -0.034,-0.006c-0.019,0 -0.038,0.004 -0.057,0.012c-0.019,0.008 -0.037,0.02 -0.053,0.035c-0.017,0.015 -0.031,0.032 -0.043,0.052c-0.001,0.002 -0.002,0.003 -0.002,0.005c-0,0.001 0,0.002 0.001,0.002c0.001,0 0.003,-0 0.004,-0.001c0.001,-0.001 0.002,-0.002 0.004,-0.004c0.014,-0.015 0.025,-0.026 0.033,-0.031c0.008,-0.005 0.016,-0.008 0.023,-0.008c0.007,0 0.012,0.004 0.013,0.012c0.002,0.008 -0,0.021 -0.005,0.04Zm0.072,0.424l0.03,0.125c0.006,0.027 0.016,0.046 0.03,0.058c0.014,0.012 0.031,0.018 0.053,0.018c0.02,0 0.038,-0.003 0.054,-0.01c0.016,-0.006 0.031,-0.017 0.044,-0.031c0.013,-0.014 0.026,-0.034 0.037,-0.058c0.001,-0.002 0.001,-0.003 0.001,-0.004c-0,-0.001 -0.001,-0.002 -0.002,-0.002c-0.001,-0.001 -0.002,-0.001 -0.003,-0c-0.001,0.001 -0.002,0.001 -0.003,0.002c-0.01,0.015 -0.019,0.025 -0.026,0.03c-0.007,0.006 -0.015,0.008 -0.023,0.008c-0.008,0 -0.015,-0.003 -0.021,-0.01c-0.006,-0.006 -0.011,-0.017 -0.015,-0.031l-0.042,-0.132l-0.115,0.035Z" style="fill:#3d3d3d;fill-rule:nonzero;"/></g><g transform="matrix(136.64185,0,0,136.64185,1833.791814,1342.638868)"></g><g transform="matrix(136.64185,0,0,136.64185,1901.156246,1342.638868)"><path d="M0.232,0.01c-0.037,0 -0.069,-0.005 -0.096,-0.016c-0.027,-0.011 -0.051,-0.024 -0.069,-0.04c-0.019,-0.016 -0.034,-0.031 -0.046,-0.046l0.085,-0.074c0.012,0.019 0.028,0.036 0.049,0.051c0.021,0.016 0.047,0.024 0.078,0.024c0.025,0 0.044,-0.005 0.058,-0.015c0.014,-0.01 0.021,-0.022 0.021,-0.036c0,-0.012 -0.004,-0.022 -0.013,-0.03c-0.009,-0.007 -0.021,-0.014 -0.035,-0.019c-0.015,-0.005 -0.031,-0.01 -0.049,-0.015c-0.019,-0.005 -0.038,-0.011 -0.058,-0.018c-0.02,-0.007 -0.038,-0.016 -0.055,-0.027c-0.017,-0.011 -0.03,-0.025 -0.041,-0.042c-0.01,-0.017 -0.015,-0.039 -0.015,-0.064c0,-0.044 0.017,-0.079 0.051,-0.106c0.034,-0.027 0.079,-0.04 0.135,-0.04c0.039,0 0.075,0.008 0.107,0.023c0.032,0.015 0.058,0.038 0.076,0.068l-0.077,0.06c-0.013,-0.019 -0.029,-0.033 -0.048,-0.043c-0.019,-0.01 -0.04,-0.015 -0.062,-0.015c-0.019,0 -0.035,0.004 -0.048,0.011c-0.013,0.007 -0.019,0.017 -0.019,0.03c0,0.009 0.003,0.016 0.009,0.022c0.006,0.006 0.015,0.011 0.028,0.016c0.013,0.005 0.03,0.01 0.051,0.015c0.02,0.005 0.04,0.01 0.062,0.017c0.021,0.007 0.041,0.016 0.06,0.027c0.019,0.011 0.034,0.026 0.045,0.045c0.012,0.019 0.017,0.042 0.017,0.071c0,0.033 -0.008,0.061 -0.025,0.086c-0.017,0.025 -0.04,0.044 -0.07,0.058c-0.03,0.014 -0.065,0.021 -0.106,0.021Z" style="fill:#3d3d3d;fill-rule:nonzero;"/></g><g transform="matrix(136.64185,0,0,136.64185,1958.819106,1342.638868)"><path d="M0.061,-0l0,-0.697l0.125,0l0,0.316l-0.02,0.003c0.009,-0.03 0.021,-0.054 0.038,-0.072c0.017,-0.018 0.037,-0.031 0.059,-0.04c0.022,-0.008 0.045,-0.012 0.068,-0.012c0.056,0 0.1,0.016 0.131,0.048c0.031,0.032 0.047,0.076 0.047,0.133l0,0.322l-0.125,-0l0,-0.276c0,-0.041 -0.007,-0.071 -0.022,-0.09c-0.015,-0.019 -0.038,-0.029 -0.069,-0.029c-0.035,0 -0.062,0.013 -0.08,0.038c-0.018,0.025 -0.027,0.066 -0.027,0.12l0,0.236l-0.125,-0Z" style="fill:#3d3d3d;fill-rule:nonzero;"/></g><g transform="matrix(136.64185,0,0,136.64185,2029.053017,1342.638868)"><path d="M0.06,-0l0,-0.493l0.124,0l0,0.493l-0.124,-0Zm-0.004,-0.569l0,-0.128l0.132,0l0,0.128l-0.132,0Z" style="fill:#3d3d3d;fill-rule:nonzero;"/></g><g transform="matrix(136.64185,0,0,136.64185,2055.698178,1342.638868)"><path d="M0.061,-0l0,-0.493l0.125,0l0,0.112l-0.02,0.003c0.009,-0.03 0.021,-0.054 0.038,-0.072c0.017,-0.018 0.036,-0.031 0.058,-0.04c0.022,-0.008 0.045,-0.012 0.068,-0.012c0.056,0 0.1,0.016 0.131,0.048c0.031,0.032 0.047,0.076 0.047,0.133l0,0.322l-0.125,-0l0,-0.276c0,-0.041 -0.007,-0.071 -0.022,-0.09c-0.015,-0.019 -0.038,-0.029 -0.069,-0.029c-0.024,0 -0.043,0.006 -0.059,0.017c-0.016,0.011 -0.028,0.028 -0.036,0.052c-0.008,0.023 -0.012,0.053 -0.012,0.09l0,0.236l-0.125,-0Z" style="fill:#3d3d3d;fill-rule:nonzero;"/></g><g transform="matrix(136.64185,0,0,136.64185,2132.764181,1342.638868)"></g></g></svg>